<svg width="33" height="33" viewBox="0 0 33 33" fill="none" xmlns="http://www.w3.org/2000/svg">
<g id="material-symbols:mail">
<path id="Vector" d="M5.83317 27.1666C5.09984 27.1666 4.47184 26.9053 3.94917 26.3826C3.42651 25.8599 3.16562 25.2324 3.16651 24.4999V8.49992C3.16651 7.76659 3.42784 7.13859 3.95051 6.61592C4.47317 6.09325 5.10073 5.83237 5.83317 5.83325H27.1665C27.8998 5.83325 28.5278 6.09459 29.0505 6.61725C29.5732 7.13992 29.8341 7.76748 29.8332 8.49992V24.4999C29.8332 25.2333 29.5718 25.8613 29.0492 26.3839C28.5265 26.9066 27.899 27.1675 27.1665 27.1666H5.83317ZM16.4998 17.8333L27.1665 11.1666V8.49992L16.4998 15.1666L5.83317 8.49992V11.1666L16.4998 17.8333Z" fill="#0052B4"/>
</g>
</svg>
