<svg width="33" height="33" viewBox="0 0 33 33" fill="none" xmlns="http://www.w3.org/2000/svg">
<g id="phone">
<path id="Vector" d="M29.8334 23.0595V27.0595C29.8349 27.4308 29.7589 27.7984 29.6101 28.1386C29.4613 28.4788 29.2431 28.7843 28.9695 29.0353C28.6959 29.2863 28.3728 29.4775 28.0211 29.5964C27.6693 29.7154 27.2966 29.7596 26.9267 29.7261C22.8239 29.2803 18.8827 27.8783 15.4201 25.6328C12.1985 23.5857 9.46719 20.8544 7.42007 17.6328C5.16671 14.1544 3.7644 10.1941 3.32674 6.07281C3.29342 5.7041 3.33724 5.33249 3.45541 4.98164C3.57357 4.6308 3.7635 4.3084 4.01309 4.03497C4.26269 3.76155 4.56648 3.54309 4.90513 3.39351C5.24378 3.24392 5.60986 3.16649 5.98007 3.16614H9.98007C10.6271 3.15978 11.2545 3.38892 11.7451 3.81086C12.2357 4.23279 12.5562 4.81874 12.6467 5.45948C12.8156 6.73957 13.1287 7.99645 13.5801 9.20615C13.7595 9.68338 13.7983 10.202 13.6919 10.7007C13.5856 11.1993 13.3386 11.657 12.9801 12.0195L11.2867 13.7128C13.1848 17.0509 15.9487 19.8147 19.2867 21.7128L20.9801 20.0195C21.3426 19.661 21.8003 19.4139 22.2989 19.3076C22.7975 19.2013 23.3162 19.2401 23.7934 19.4195C25.0031 19.8709 26.26 20.184 27.5401 20.3528C28.1878 20.4442 28.7793 20.7704 29.2021 21.2695C29.625 21.7685 29.8496 22.4056 29.8334 23.0595Z" fill="#0052B4"/>
</g>
</svg>
